<svg width="24" height="24" viewBox="0 0 24 24" fill="none" xmlns="http://www.w3.org/2000/svg">
<path d="M6.83406 0.0802002H16.4941C20.1741 0.0802002 23.1641 3.0702 23.1641 6.7502V16.4102C23.1641 18.1792 22.4613 19.8757 21.2105 21.1266C19.9596 22.3775 18.2631 23.0802 16.4941 23.0802H6.83406C3.15406 23.0802 0.164062 20.0902 0.164062 16.4102V6.7502C0.164063 4.98121 0.866793 3.28467 2.11766 2.0338C3.36853 0.78293 5.06507 0.0802002 6.83406 0.0802002ZM6.60406 2.3802C5.50607 2.3802 4.45304 2.81638 3.67664 3.59278C2.90024 4.36918 2.46406 5.4222 2.46406 6.5202V16.6402C2.46406 18.9287 4.31556 20.7802 6.60406 20.7802H16.7241C17.8221 20.7802 18.8751 20.344 19.6515 19.5676C20.4279 18.7912 20.8641 17.7382 20.8641 16.6402V6.5202C20.8641 4.2317 19.0126 2.3802 16.7241 2.3802H6.60406ZM17.7016 4.1052C18.0828 4.1052 18.4484 4.25665 18.718 4.52623C18.9876 4.79582 19.1391 5.16145 19.1391 5.5427C19.1391 5.92395 18.9876 6.28958 18.718 6.55917C18.4484 6.82875 18.0828 6.9802 17.7016 6.9802C17.3203 6.9802 16.9547 6.82875 16.6851 6.55917C16.4155 6.28958 16.2641 5.92395 16.2641 5.5427C16.2641 5.16145 16.4155 4.79582 16.6851 4.52623C16.9547 4.25665 17.3203 4.1052 17.7016 4.1052ZM11.6641 5.8302C13.1891 5.8302 14.6516 6.436 15.7299 7.51434C16.8083 8.59267 17.4141 10.0552 17.4141 11.5802C17.4141 13.1052 16.8083 14.5677 15.7299 15.6461C14.6516 16.7244 13.1891 17.3302 11.6641 17.3302C10.1391 17.3302 8.67653 16.7244 7.5982 15.6461C6.51986 14.5677 5.91406 13.1052 5.91406 11.5802C5.91406 10.0552 6.51986 8.59267 7.5982 7.51434C8.67653 6.436 10.1391 5.8302 11.6641 5.8302ZM11.6641 8.1302C10.7491 8.1302 9.87154 8.49368 9.22454 9.14068C8.57754 9.78768 8.21406 10.6652 8.21406 11.5802C8.21406 12.4952 8.57754 13.3727 9.22454 14.0197C9.87154 14.6667 10.7491 15.0302 11.6641 15.0302C12.5791 15.0302 13.4566 14.6667 14.1036 14.0197C14.7506 13.3727 15.1141 12.4952 15.1141 11.5802C15.1141 10.6652 14.7506 9.78768 14.1036 9.14068C13.4566 8.49368 12.5791 8.1302 11.6641 8.1302Z" fill="black"/>
</svg>
