<svg width="24" height="24" viewBox="0 0 24 24" fill="none" xmlns="http://www.w3.org/2000/svg">
<path d="M21.0968 0.0802002C21.7746 0.0802002 22.4246 0.349445 22.9038 0.828705C23.3831 1.30796 23.6523 1.95798 23.6523 2.63576V20.5246C23.6523 21.2024 23.3831 21.8524 22.9038 22.3317C22.4246 22.811 21.7746 23.0802 21.0968 23.0802H3.2079C2.53012 23.0802 1.88011 22.811 1.40085 22.3317C0.921589 21.8524 0.652344 21.2024 0.652344 20.5246V2.63576C0.652344 1.95798 0.921589 1.30796 1.40085 0.828705C1.88011 0.349445 2.53012 0.0802002 3.2079 0.0802002H21.0968ZM20.4579 19.8858V13.1135C20.4579 12.0088 20.019 10.9492 19.2378 10.168C18.4566 9.38685 17.3971 8.94798 16.2923 8.94798C15.2062 8.94798 13.9412 9.61242 13.3279 10.6091V9.19076H9.7629V19.8858H13.3279V13.5863C13.3279 12.6024 14.1201 11.7974 15.104 11.7974C15.5785 11.7974 16.0335 11.9859 16.3689 12.3214C16.7044 12.6569 16.8929 13.1119 16.8929 13.5863V19.8858H20.4579ZM5.61012 7.18465C6.17945 7.18465 6.72547 6.95848 7.12804 6.5559C7.53062 6.15332 7.75679 5.60731 7.75679 5.03798C7.75679 3.84964 6.79846 2.87853 5.61012 2.87853C5.0374 2.87853 4.48814 3.10605 4.08316 3.51102C3.67819 3.91599 3.45068 4.46526 3.45068 5.03798C3.45068 6.22631 4.42179 7.18465 5.61012 7.18465ZM7.38623 19.8858V9.19076H3.84679V19.8858H7.38623Z" fill="black"/>
</svg>
