<svg width="29" height="24" viewBox="0 0 29 24" fill="none" xmlns="http://www.w3.org/2000/svg">
<path d="M28.3485 2.78608C27.3067 3.25961 26.1837 3.57079 25.0202 3.71961C26.2108 3.00255 27.1308 1.86608 27.5637 0.499612C26.4408 1.17608 25.1961 1.64961 23.8837 1.9202C22.8149 0.756671 21.3132 0.0802002 19.6085 0.0802002C16.429 0.0802002 13.8314 2.67785 13.8314 5.88432C13.8314 6.34432 13.8855 6.79079 13.9802 7.2102C9.16375 6.96667 4.87492 4.65314 2.02022 1.14902C1.51963 2.00138 1.23551 3.00255 1.23551 4.05785C1.23551 6.07373 2.25022 7.85961 3.81963 8.87432C2.85904 8.87432 1.9661 8.60373 1.18139 8.19785V8.23843C1.18139 11.0526 3.18375 13.4067 5.83551 13.9343C4.98414 14.1673 4.09035 14.1997 3.22433 14.029C3.5918 15.1824 4.31147 16.1916 5.28218 16.9148C6.25289 17.6379 7.42582 18.0387 8.6361 18.0608C6.58454 19.6849 4.04151 20.5628 1.42492 20.5502C0.964922 20.5502 0.504922 20.5231 0.0449219 20.469C2.61551 22.1196 5.67316 23.0802 8.94728 23.0802C19.6085 23.0802 25.4667 14.232 25.4667 6.56079C25.4667 6.30373 25.4667 6.0602 25.4532 5.80314C26.5896 4.99138 27.5637 3.96314 28.3485 2.78608Z" fill="black"/>
</svg>
