<svg width="34" height="24" viewBox="0 0 34 24" fill="none" xmlns="http://www.w3.org/2000/svg">
<path d="M13.8196 16.5088L22.346 11.5802L13.8196 6.65163V16.5088ZM32.811 3.6452C33.0246 4.41734 33.1725 5.45234 33.271 6.76663C33.386 8.08091 33.4353 9.21449 33.4353 10.2002L33.5339 11.5802C33.5339 15.1781 33.271 17.8231 32.811 19.5152C32.4003 20.9938 31.4475 21.9466 29.9689 22.3573C29.1968 22.5709 27.7839 22.7188 25.6153 22.8173C23.4796 22.9323 21.5246 22.9816 19.7175 22.9816L17.1053 23.0802C10.2218 23.0802 5.9339 22.8173 4.24176 22.3573C2.76319 21.9466 1.81033 20.9938 1.39961 19.5152C1.18604 18.7431 1.03819 17.7081 0.939615 16.3938C0.824615 15.0795 0.775329 13.9459 0.775329 12.9602L0.676758 11.5802C0.676758 7.98234 0.939615 5.33734 1.39961 3.6452C1.81033 2.16663 2.76319 1.21377 4.24176 0.803057C5.0139 0.589486 6.42676 0.441629 8.59533 0.343057C10.731 0.228057 12.686 0.178772 14.4932 0.178772L17.1053 0.0802002C23.9889 0.0802002 28.2768 0.343057 29.9689 0.803057C31.4475 1.21377 32.4003 2.16663 32.811 3.6452Z" fill="black"/>
</svg>
